<svg width="84" height="60" viewBox="0 0 84 60" fill="none" xmlns="http://www.w3.org/2000/svg">
<path d="M66.7891 5.16772C63.5699 4.20305 59.6622 4.92199 57.2846 6.91633C54.402 9.33428 54.7275 12.7827 58.0116 14.6186L63.8439 17.8791C67.5392 19.9448 73.1642 19.4139 76.4078 16.6932C80.2503 13.4701 78.9232 8.80383 73.7205 7.24478L66.7891 5.16772Z" fill="#FFA90C"/>
<rect width="54.2524" height="33.3748" rx="16.6874" transform="matrix(-1 0 0 1 78.7273 26.6252)" fill="#FFC55A"/>
<ellipse cx="27.1262" cy="26.978" rx="27.1262" ry="26.978" transform="matrix(-1 0 0 1 70.897 6.04395)" fill="#FFC55A"/>
<path d="M16.2168 7.99237C19.4329 5.82734 23.7623 5.42582 27.0437 6.98825C32.4137 9.54519 32.5614 15.9706 27.3325 19.5495L23.1381 22.4203C20.154 24.4627 16.1589 24.9921 12.9228 23.7738C6.89594 21.505 6.40076 14.6002 11.9948 10.8344L16.2168 7.99237Z" fill="#FFA90C"/>
<path d="M66.0265 40.8388C67.1084 42.129 69.0932 42.129 70.1751 40.8388L70.6691 40.2496C72.1463 38.488 70.8938 35.8032 68.5948 35.8032L67.6068 35.8032C65.3077 35.8032 64.0552 38.488 65.5324 40.2496L66.0265 40.8388Z" fill="#444444"/>
<path d="M60.0578 27.4192C59.3035 27.9008 58.3972 27.0707 58.8112 26.2775C58.8538 26.1959 58.909 26.1216 58.9749 26.0573L60.2914 24.7713C60.913 24.1642 61.8529 24.0206 62.6289 24.4143L64.7764 25.5038C65.0951 25.6655 65.3102 25.9777 65.3476 26.3328C65.4366 27.1779 64.5381 27.7725 63.7937 27.3612L62.4862 26.6388C62.0877 26.4186 61.601 26.4338 61.2178 26.6785L60.0578 27.4192Z" fill="#444444"/>
<path d="M53.6077 28.309C54.4527 28.606 55.1437 27.5916 54.5581 26.9138C54.4979 26.844 54.427 26.7843 54.3481 26.7367L52.7703 25.7843C52.0257 25.3349 51.0779 25.4091 50.4132 25.9689L48.5732 27.5185C48.3002 27.7484 48.1626 28.1013 48.208 28.4556C48.3158 29.2985 49.3271 29.6728 49.9571 29.1031L51.0639 28.1019C51.4011 27.7969 51.8783 27.701 52.3075 27.8519L53.6077 28.309Z" fill="#444444"/>
<rect width="7.83025" height="10.5687" rx="3.91512" transform="matrix(-1 0 0 1 57.4744 44.9814)" fill="#FF5D24"/>
</svg>
