<svg width="76" height="29" viewBox="0 0 76 29" fill="none" xmlns="http://www.w3.org/2000/svg">
<path d="M23.392 10.16C24.1173 10.16 24.48 10.512 24.48 11.216V13.776H1.888C1.16267 13.776 0.8 13.424 0.8 12.72V10.16H16.992V5.84H5.568C4.928 5.84 4.608 5.53067 4.608 4.912V2.32H19.936C20.5333 2.34133 20.832 2.65067 20.832 3.248V5.072V7.184C20.832 8.57067 20.8213 9.56267 20.8 10.16H23.392ZM20.032 24.496C20.8427 24.432 21.248 24.6987 21.248 25.296V27.504C18.7733 27.8667 16.256 28.048 13.696 28.048C11.6907 28.048 9.99467 27.92 8.608 27.664C6.496 27.28 5.20533 26.48 4.736 25.264C4.50133 24.624 4.384 23.8347 4.384 22.896C4.384 21.9787 4.49067 21.104 4.704 20.272H16.8V18.832H5.984C5.49333 18.832 5.10933 18.7147 4.832 18.48C4.576 18.2453 4.448 17.9147 4.448 17.488V15.664H19.584C20.2453 15.664 20.576 15.984 20.576 16.624V22C20.576 22.7467 20.1813 23.12 19.392 23.12H8.192C8.17067 23.5253 8.24533 23.8347 8.416 24.048C8.608 24.24 8.93867 24.3893 9.408 24.496C10.304 24.6667 11.776 24.752 13.824 24.752C16.0853 24.752 18.1547 24.6667 20.032 24.496Z" fill="#444444"/>
<path d="M49.7613 7.632C49.8679 7.888 49.9213 8.24 49.9213 8.688C49.9213 9.47733 49.7293 10.1813 49.3453 10.8H45.9853V10.832V12.368C45.9853 13.2 45.9426 13.7867 45.8573 14.128C45.7506 14.6827 45.4733 15.0987 45.0253 15.376C44.5986 15.632 43.9586 15.76 43.1053 15.76C42.8919 15.76 42.5079 15.7387 41.9533 15.696V1.296H44.8973C45.6226 1.296 45.9853 1.648 45.9853 2.352V6.768C46.7106 6.64 47.3186 6.576 47.8093 6.576C48.3639 6.576 48.7906 6.66133 49.0893 6.832C49.3879 7.00267 49.6119 7.26933 49.7613 7.632ZM39.2013 13.136C38.4973 13.776 37.5799 14.2667 36.4493 14.608C35.3399 14.928 34.1666 15.088 32.9293 15.088C31.1586 15.088 29.7719 14.7787 28.7693 14.16C27.7666 13.5413 27.1266 12.592 26.8493 11.312C26.7213 10.608 26.6573 9.70133 26.6573 8.592C26.6573 6.352 26.8599 4.31467 27.2653 2.48H38.0813C38.8279 2.48 39.2013 2.84267 39.2013 3.568V13.136ZM30.4653 9.712C30.5506 10.3947 30.7426 10.896 31.0413 11.216C31.3613 11.536 31.8306 11.7493 32.4493 11.856C32.7479 11.8987 32.9826 11.92 33.1533 11.92C34.0493 11.92 34.7746 11.728 35.3293 11.344V5.616H30.5933C30.4653 6.32 30.4013 7.23733 30.4013 8.368C30.4013 8.79467 30.4226 9.24267 30.4653 9.712ZM45.0893 23.888C45.6653 24.08 46.0813 24.3253 46.3373 24.624C46.5933 24.9227 46.7213 25.2853 46.7213 25.712C46.7213 26.1387 46.6039 26.544 46.3693 26.928C46.1346 27.3333 45.8359 27.632 45.4733 27.824L37.6013 25.168C36.4706 26.1493 34.9666 26.9813 33.0893 27.664C32.5559 27.856 32.0546 27.952 31.5853 27.952C31.0946 27.952 30.6679 27.8347 30.3053 27.6C29.9853 27.4293 29.7186 27.1307 29.5052 26.704C29.3133 26.2773 29.2066 25.7867 29.1853 25.232C31.1479 24.6347 32.7693 23.92 34.0493 23.088C35.3293 22.256 36.0439 21.488 36.1933 20.784H30.8493C30.1666 20.784 29.8253 20.4533 29.8253 19.792V17.232H45.3133C45.9959 17.232 46.3373 17.5627 46.3373 18.224V20.784H40.1293C40.0866 21.2533 39.9906 21.6907 39.8413 22.096L45.0893 23.888ZM54.7865 12.528C54.2318 12.1227 53.9545 11.5467 53.9545 10.8C53.9545 10.672 53.9758 10.4373 54.0185 10.096C58.2638 9.17867 60.7385 8.048 61.4425 6.704H55.6825C54.9785 6.704 54.6265 6.36267 54.6265 5.68V3.504H61.6985C61.6132 3.20533 61.5598 2.98133 61.5385 2.832C61.3892 2.23467 61.2612 1.776 61.1545 1.456V1.424C61.8585 0.890666 62.6478 0.623999 63.5225 0.623999C63.7998 0.623999 64.0772 0.655999 64.3545 0.719999C64.7812 0.805333 65.1118 0.986666 65.3465 1.264C65.5812 1.52 65.6985 1.84 65.6985 2.224C65.6985 2.608 65.5492 3.03467 65.2505 3.504H71.1385C71.8425 3.504 72.1945 3.84533 72.1945 4.528V6.704H65.4105C65.3465 7.10933 65.2398 7.472 65.0905 7.792L71.0425 9.2C72.0665 9.47733 72.5785 10.096 72.5785 11.056C72.5785 11.3973 72.4825 11.7493 72.2905 12.112C72.0985 12.4747 71.8318 12.7733 71.4905 13.008L62.4025 10.704C61.1438 11.536 59.6292 12.1973 57.8585 12.688C57.2825 12.8373 56.7492 12.912 56.2585 12.912C55.6398 12.912 55.1492 12.784 54.7865 12.528ZM65.2825 17.264V18.736H70.4985C71.2238 18.736 71.5865 19.088 71.5865 19.792V26.256C70.6905 26.8533 69.4532 27.312 67.8745 27.632C66.3172 27.9733 64.7278 28.144 63.1065 28.144C62.7012 28.144 62.1572 28.1227 61.4745 28.08C59.6185 27.9307 58.1678 27.5787 57.1225 27.024C56.0772 26.4693 55.4052 25.6267 55.1065 24.496C54.9358 23.8133 54.8505 23.12 54.8505 22.416C54.8505 21.3067 55.0318 20.08 55.3945 18.736H61.1545V17.264H52.4505C51.7252 17.264 51.3625 16.912 51.3625 16.208V13.904H73.9545C74.6798 13.904 75.0425 14.256 75.0425 14.96V17.264H65.2825ZM58.9785 22.064C58.9572 22.192 58.9465 22.3733 58.9465 22.608C58.9465 23.1413 59.0852 23.5573 59.3625 23.856C59.6398 24.1547 60.1198 24.3787 60.8025 24.528C61.4852 24.656 62.3172 24.72 63.2985 24.72C65.0905 24.72 66.4985 24.5387 67.5225 24.176V22.064H58.9785Z" fill="#FF5D24"/>
</svg>
