<svg width="30" height="30" viewBox="0 0 30 30" fill="none" xmlns="http://www.w3.org/2000/svg">
<path fill-rule="evenodd" clip-rule="evenodd" d="M24.1004 5.89959C24.4665 6.2657 24.4665 6.8593 24.1004 7.22541L7.22541 24.1004C6.8593 24.4665 6.2657 24.4665 5.89959 24.1004C5.53347 23.7343 5.53347 23.1407 5.89959 22.7746L22.7746 5.89959C23.1407 5.53347 23.7343 5.53347 24.1004 5.89959Z" fill="black"/>
<path fill-rule="evenodd" clip-rule="evenodd" d="M5.89959 5.89959C6.2657 5.53347 6.8593 5.53347 7.22541 5.89959L24.1004 22.7746C24.4665 23.1407 24.4665 23.7343 24.1004 24.1004C23.7343 24.4665 23.1407 24.4665 22.7746 24.1004L5.89959 7.22541C5.53347 6.8593 5.53347 6.2657 5.89959 5.89959Z" fill="black" fill-opacity="0.8"/>
</svg>
